<svg width="300" height="301" viewBox="0 0 300 301" fill="none" xmlns="http://www.w3.org/2000/svg">
<path d="M150 300C232.843 300 300 232.843 300 150C300 67.1573 232.843 0 150 0C67.1573 0 0 67.1573 0 150C0 232.843 67.1573 300 150 300Z" fill="#13D0AB"/>
<path d="M156.42 142.67C156.655 142.404 156.942 142.189 157.263 142.038C157.585 141.888 157.933 141.804 158.288 141.793C158.643 141.782 158.996 141.844 159.326 141.975C159.656 142.106 159.956 142.303 160.206 142.553C160.457 142.804 160.654 143.104 160.785 143.434C160.916 143.764 160.978 144.117 160.967 144.472C160.956 144.827 160.872 145.175 160.722 145.497C160.571 145.818 160.356 146.105 160.09 146.34L149.09 157.34C148.848 157.583 148.561 157.777 148.244 157.908C147.928 158.04 147.588 158.108 147.245 158.108C146.902 158.108 146.562 158.04 146.246 157.908C145.929 157.777 145.642 157.583 145.4 157.34L139.95 151.88C139.694 151.643 139.488 151.357 139.346 151.039C139.203 150.721 139.126 150.378 139.119 150.029C139.112 149.68 139.176 149.334 139.306 149.011C139.436 148.687 139.63 148.393 139.877 148.147C140.123 147.9 140.417 147.706 140.741 147.576C141.064 147.446 141.41 147.382 141.759 147.389C142.108 147.396 142.451 147.473 142.769 147.616C143.087 147.758 143.373 147.964 143.61 148.22L147.26 151.87L156.42 142.67Z" fill="#20272B"/>
<path d="M175 139.65L200.66 114C198.643 111.176 196.395 108.523 193.94 106.07C191.486 103.612 188.83 101.364 186 99.35L160.36 125V88.72C156.936 88.1475 153.471 87.8598 150 87.86V87.86C146.539 87.8615 143.084 88.1491 139.67 88.72V125L114 99.35C111.174 101.361 108.521 103.605 106.07 106.06V106.06C103.613 108.518 101.362 111.173 99.34 114L125 139.65H88.72C88.72 139.65 87.86 146.46 87.86 149.98C87.861 153.444 88.1487 156.903 88.72 160.32H125L99.34 186C103.379 191.666 108.334 196.621 114 200.66L139.64 175V211.27C143.049 211.849 146.502 212.14 149.96 212.14H150C153.458 212.14 156.911 211.849 160.32 211.27V175L186 200.66C188.824 198.646 191.476 196.402 193.93 193.95C196.382 191.497 198.626 188.844 200.64 186.02L175 160.36H211.28C211.851 156.953 212.139 153.505 212.14 150.05V150C212.139 146.545 211.851 143.097 211.28 139.69L175 139.65ZM150 169.54C146.135 169.542 142.356 168.398 139.141 166.252C135.927 164.106 133.421 161.055 131.94 157.485C130.46 153.914 130.071 149.985 130.824 146.194C131.577 142.403 133.437 138.92 136.17 136.187C138.902 133.453 142.384 131.591 146.174 130.836C149.965 130.081 153.894 130.468 157.465 131.946C161.036 133.425 164.089 135.93 166.236 139.143C168.384 142.357 169.53 146.135 169.53 150C169.531 152.566 169.027 155.106 168.046 157.477C167.065 159.848 165.627 162.002 163.813 163.816C162 165.631 159.846 167.07 157.476 168.052C155.106 169.035 152.566 169.54 150 169.54V169.54Z" fill="#20272B"/>
<path d="M150 283.37C223.658 283.37 283.37 223.658 283.37 150C283.37 76.3418 223.658 16.63 150 16.63C76.3418 16.63 16.63 76.3418 16.63 150C16.63 223.658 76.3418 283.37 150 283.37Z" stroke="#12B192" stroke-width="5" stroke-miterlimit="10"/>
<path d="M150 232.44C195.53 232.44 232.44 195.53 232.44 150C232.44 104.47 195.53 67.56 150 67.56C104.47 67.56 67.56 104.47 67.56 150C67.56 195.53 104.47 232.44 150 232.44Z" stroke="#12B192" stroke-width="5" stroke-miterlimit="10"/>
<path d="M65.6169 100.761L60.1212 111.693L57.7794 110.516L52.2054 100.103L49.2235 106.034L46.1619 104.495L51.508 93.8606L53.8402 95.0331L59.4238 105.451L62.5552 99.222L65.6169 100.761Z" fill="#20272B"/>
<path d="M73.7523 89.1543L70.9296 88.0169L67.8823 92.1096L69.7684 94.505L66.9842 98.2444L57.3957 84.7168L60.7766 80.1761L76.5237 85.4321L73.7523 89.1543ZM67.6119 86.6449L65.1398 85.648C64.5862 85.4323 63.8762 85.1447 63.0099 84.7853C62.1478 84.4202 61.5374 84.1488 61.1787 83.971C61.4332 84.2408 61.8387 84.7035 62.3953 85.359C62.9561 86.0087 64.03 87.3306 65.6167 89.3245L67.6119 86.6449Z" fill="#20272B"/>
<path d="M80.3372 66.983C81.5396 68.2608 82.0916 69.6049 81.993 71.0154C81.8947 72.4158 81.1519 73.7687 79.7647 75.0742L78.8963 75.8913L82.4667 79.6855L79.3767 82.5934L68.6138 71.1561L72.5723 67.4311C74.0169 66.0716 75.3986 65.3663 76.7174 65.3152C78.0362 65.264 79.2428 65.82 80.3372 66.983ZM76.5258 73.3723L77.0891 72.8423C77.5533 72.4055 77.7982 71.9291 77.824 71.4131C77.8551 70.8922 77.6546 70.4023 77.2227 69.9434C76.4964 69.1715 75.7056 69.188 74.8502 69.9929L74.0523 70.7438L76.5258 73.3723Z" fill="#20272B"/>
<path d="M91.7231 71.8131L82.6053 59.0257L86.0777 56.5498L95.1954 69.3372L91.7231 71.8131Z" fill="#20272B"/>
<path d="M108.42 61.6581L100.201 66.0614L92.784 52.2179L101.003 47.8146L102.611 50.8162L98.1323 53.2157L99.2991 55.3936L103.446 53.1716L105.055 56.1733L100.907 58.3952L102.307 61.0086L106.786 58.6091L108.42 61.6581Z" fill="#20272B"/>
<path d="M115.243 52.7859L117.088 58.1945L113.072 59.5648L108.001 44.7011L112.87 43.0395C116.91 41.6611 119.429 42.436 120.428 45.364C121.016 47.0855 120.63 48.7041 119.27 50.2198L125.811 55.2182L121.256 56.7723L116.259 52.439L115.243 52.7859ZM114.212 49.7664L114.965 49.5097C116.368 49.0309 116.857 48.1714 116.434 46.9311C116.085 45.9076 115.223 45.6307 113.847 46.1001L113.054 46.3707L114.212 49.7664Z" fill="#20272B"/>
<path d="M144.016 40.1348C143.008 40.2053 142.252 40.6746 141.745 41.5428C141.238 42.4039 141.036 43.5596 141.137 45.0098C141.348 48.0245 142.6 49.4517 144.894 49.2911C145.587 49.2426 146.251 49.0992 146.888 48.8608C147.525 48.6224 148.162 48.3444 148.8 48.027L149.051 51.6061C147.784 52.2763 146.325 52.6691 144.675 52.7846C142.31 52.9502 140.448 52.3914 139.087 51.1082C137.734 49.8246 136.967 47.8862 136.785 45.2929C136.671 43.6712 136.875 42.2247 137.397 40.9535C137.925 39.6817 138.738 38.6772 139.835 37.9399C140.938 37.195 142.265 36.7683 143.816 36.6598C145.509 36.5413 147.153 36.7959 148.747 37.4237L147.684 40.8472C147.086 40.6162 146.491 40.4281 145.9 40.2829C145.308 40.1376 144.68 40.0883 144.016 40.1348Z" fill="#20272B"/>
<path d="M163.847 53.3631L154.561 52.5245L155.973 36.8831L165.259 37.7217L164.953 41.1132L159.893 40.6562L159.67 43.1169L164.356 43.5401L164.05 46.9315L159.364 46.5084L159.098 49.4612L164.158 49.9182L163.847 53.3631Z" fill="#20272B"/>
<path d="M174.459 49.6591L173.033 55.1931L168.924 54.1341L172.843 38.926L177.826 40.2102C181.959 41.2755 183.64 43.306 182.868 46.3019C182.414 48.0633 181.202 49.2044 179.234 49.7251L181.958 57.4934L177.298 56.2923L175.499 49.9272L174.459 49.6591ZM175.255 46.5696L176.025 46.768C177.46 47.138 178.342 46.6885 178.669 45.4194C178.939 44.3722 178.37 43.6672 176.962 43.3044L176.151 43.0953L175.255 46.5696Z" fill="#20272B"/>
<path d="M191.765 61.8516L187.892 60.117L192.894 48.9507L189.394 47.383L190.813 44.2164L201.675 49.0822L200.257 52.2488L196.767 50.6854L191.765 61.8516Z" fill="#20272B"/>
<path d="M199.352 65.8434L207.661 52.5168L211.28 54.7732L202.971 68.0999L199.352 65.8434Z" fill="#20272B"/>
<path d="M211.211 74.0427L207.96 71.417L217.828 59.1994L225.049 65.0312L222.909 67.6803L218.939 64.4742L217.056 66.8057L220.717 69.7621L218.577 72.4112L214.917 69.4548L211.211 74.0427Z" fill="#20272B"/>
<path d="M218.834 80.9196L230.158 70.0376L233.113 73.1125L221.789 83.9945L218.834 80.9196Z" fill="#20272B"/>
<path d="M231.353 95.9272L225.758 88.4678L238.322 79.0448L243.917 86.5041L241.193 88.5473L238.144 84.4825L236.168 85.9649L238.991 89.7289L236.266 91.7721L233.443 88.008L231.071 89.787L234.12 93.8518L231.353 95.9272Z" fill="#20272B"/>
<path d="M247.415 108.373C245.078 109.561 242.95 109.831 241.031 109.184C239.114 108.544 237.564 107.059 236.379 104.729L234.076 100.199L248.076 93.0816L250.539 97.9269C251.682 100.174 251.989 102.199 251.459 104.003C250.933 105.813 249.585 107.269 247.415 108.373ZM245.285 104.515C246.568 103.863 247.389 103.124 247.749 102.298C248.112 101.479 248.03 100.552 247.504 99.5182L246.944 98.417L239.102 102.404L239.53 103.247C240.115 104.396 240.875 105.07 241.812 105.269C242.754 105.464 243.912 105.213 245.285 104.515Z" fill="#20272B"/>
<path d="M108.208 258.814L99.6571 255.096L105.919 240.694L114.47 244.412L113.112 247.534L108.453 245.509L107.467 247.774L111.782 249.65L110.425 252.773L106.11 250.897L104.928 253.616L109.587 255.642L108.208 258.814Z" fill="#20272B"/>
<path d="M129.467 264.946L124.702 263.764L122.913 258.262L118.791 262.297L114.13 261.142L121.121 254.597L118.213 245.973L122.78 247.106L124.364 252.501L128.181 248.446L132.883 249.612L126.129 256.182L129.467 264.946Z" fill="#20272B"/>
<path d="M148.575 255.84C148.47 257.592 147.871 258.915 146.777 259.811C145.69 260.7 144.196 261.088 142.295 260.974L141.104 260.902L140.792 266.103L136.557 265.849L137.497 250.172L142.923 250.497C144.903 250.616 146.364 251.138 147.306 252.062C148.248 252.987 148.671 254.246 148.575 255.84ZM141.312 257.449L142.084 257.496C142.72 257.534 143.235 257.385 143.628 257.05C144.028 256.716 144.247 256.234 144.285 255.605C144.348 254.547 143.794 253.982 142.621 253.912L141.528 253.846L141.312 257.449Z" fill="#20272B"/>
<path d="M164.769 265.679L155.477 266.452L154.174 250.801L163.466 250.028L163.749 253.421L158.685 253.843L158.89 256.305L163.579 255.915L163.862 259.308L159.173 259.698L159.419 262.653L164.482 262.231L164.769 265.679Z" fill="#20272B"/>
<path d="M175.355 257.878L176.738 263.423L172.621 264.45L168.821 249.211L173.814 247.967C177.955 246.934 180.4 247.919 181.149 250.921C181.589 252.686 181.068 254.266 179.585 255.661L185.681 261.194L181.011 262.358L176.398 257.619L175.355 257.878ZM174.583 254.783L175.355 254.59C176.793 254.232 177.354 253.417 177.037 252.145C176.775 251.096 175.939 250.747 174.528 251.099L173.715 251.301L174.583 254.783Z" fill="#20272B"/>
<path d="M198.269 256.058L194.377 257.748L189.502 246.526L185.984 248.054L184.602 244.871L195.519 240.129L196.901 243.312L193.394 244.835L198.269 256.058Z" fill="#20272B"/>
</svg>
